<?xml version="1.0" standalone="no"?>
<!DOCTYPE svg PUBLIC "-//W3C//DTD SVG 20010904//EN"
 "http://www.w3.org/TR/2001/REC-SVG-20010904/DTD/svg10.dtd">
<svg version="1.0" xmlns="http://www.w3.org/2000/svg"
 width="700.000000pt" height="700.000000pt" viewBox="0 0 700.000000 700.000000"
 preserveAspectRatio="xMidYMid meet">
<metadata>
Created by potrace 1.14, written by Peter Selinger 2001-2017
</metadata>
<g transform="translate(0.000000,700.000000) scale(0.100000,-0.100000)"
fill="#000000" stroke="none">
<path d="M4152 5558 c-242 -25 -465 -229 -517 -474 -68 -319 130 -632 451
-714 373 -96 745 194 747 580 1 174 -56 314 -178 435 -136 136 -303 193 -503
173z m129 -493 c116 -60 73 -225 -58 -225 -96 0 -149 116 -86 190 42 51 90 62
144 35z"/>
<path d="M2935 4830 c-164 -22 -316 -113 -411 -246 -43 -60 -83 -146 -98 -206
l-6 -28 595 0 595 0 -6 28 c-15 67 -94 209 -147 264 -136 142 -333 213 -522
188z"/>
<path d="M1710 4094 c-105 -28 -199 -106 -243 -202 -20 -43 -22 -66 -25 -279
l-3 -233 374 0 374 0 19 42 c27 59 104 135 171 166 50 23 71 27 153 27 84 0
102 -3 152 -28 74 -36 139 -101 175 -175 25 -51 28 -67 28 -157 0 -91 -3 -105
-29 -158 -36 -71 -108 -140 -184 -175 -48 -22 -71 -27 -142 -26 -72 0 -94 4
-147 28 -68 31 -151 109 -180 170 l-17 36 -373 0 -373 0 0 -360 0 -360 615 0
615 0 21 41 c34 67 103 133 172 165 54 25 74 29 152 29 82 0 97 -3 156 -32 79
-39 140 -102 177 -181 23 -49 27 -70 27 -147 0 -77 -4 -98 -27 -147 -35 -76
-99 -143 -173 -181 -56 -30 -67 -32 -160 -32 -90 0 -105 3 -155 28 -69 36
-124 87 -162 155 l-30 52 -614 0 -614 0 0 -203 c0 -154 4 -216 15 -255 l16
-52 1908 0 1908 0 13 38 c9 24 15 110 17 254 l5 217 -469 3 -468 3 -65 32
c-54 26 -95 62 -236 205 -182 184 -202 214 -219 330 -8 54 9 146 37 203 11 22
97 117 191 212 140 142 180 176 231 200 l61 28 468 3 468 3 -3 227 c-3 220 -4
229 -29 282 -32 69 -75 119 -137 159 -101 64 -3 61 -1777 60 -1384 0 -1618 -2
-1665 -15z"/>
<path d="M2474 3361 c-43 -26 -64 -59 -64 -99 0 -94 95 -151 179 -107 31 15
61 69 61 107 0 36 -37 88 -75 104 -45 19 -64 18 -101 -5z"/>
<path d="M4269 2983 c-212 -211 -212 -206 1 -418 l150 -150 525 -3 c457 -2
529 -1 555 13 57 30 60 46 60 356 l0 281 -34 34 -34 34 -538 0 -537 0 -148
-147z"/>
<path d="M2934 2366 c-29 -29 -34 -41 -34 -81 0 -40 5 -52 34 -81 29 -29 41
-34 81 -34 40 0 52 5 81 34 29 29 34 41 34 81 0 40 -5 52 -34 81 -29 29 -41
34 -81 34 -40 0 -52 -5 -81 -34z"/>
</g>
</svg>
