<?xml version="1.0" standalone="no"?>
<!DOCTYPE svg PUBLIC "-//W3C//DTD SVG 20010904//EN"
 "http://www.w3.org/TR/2001/REC-SVG-20010904/DTD/svg10.dtd">
<svg version="1.0" xmlns="http://www.w3.org/2000/svg"
 width="700.000000pt" height="700.000000pt" viewBox="0 0 700.000000 700.000000"
 preserveAspectRatio="xMidYMid meet">
<metadata>
Created by potrace 1.14, written by Peter Selinger 2001-2017
</metadata>
<g transform="translate(0.000000,700.000000) scale(0.100000,-0.100000)"
fill="#000000" stroke="none">
<path d="M412 6980 c-97 -26 -173 -70 -248 -144 -75 -76 -119 -151 -144 -252
-20 -76 -20 -117 -20 -3084 0 -2967 0 -3008 20 -3084 25 -101 69 -176 144
-252 76 -75 151 -119 252 -144 76 -20 117 -20 3084 -20 2967 0 3008 0 3084 20
101 25 176 69 252 144 75 76 119 151 144 252 20 76 20 117 20 3084 0 2967 0
3008 -20 3084 -25 101 -69 176 -144 252 -76 75 -151 119 -252 144 -76 20 -116
20 -3088 19 -2937 0 -3013 -1 -3084 -19z m4318 -1980 l0 -340 -785 0 -785 0 0
-425 0 -425 715 0 715 0 0 -340 0 -340 -715 0 -715 0 0 -735 0 -735 -445 0
-445 0 0 1840 0 1840 1230 0 1230 0 0 -340z"/>
</g>
</svg>
