<?xml version="1.0" encoding="iso-8859-1"?>
<!-- Generator: Adobe Illustrator 19.0.0, SVG Export Plug-In . SVG Version: 6.00 Build 0)  -->
<svg version="1.1" id="Capa_1" xmlns="http://www.w3.org/2000/svg" xmlns:xlink="http://www.w3.org/1999/xlink" x="0px" y="0px"
	 viewBox="0 0 512 512" style="enable-background:new 0 0 512 512;" xml:space="preserve">
<g>
	<g>
		<path d="M320,64c-57.568,0-109.088,25.472-144.256,65.6c-5.248-0.544-10.368-1.6-15.744-1.6C71.648,128,0,199.648,0,288
			s71.648,160,160,160c27.488,0,129.664,0,160,0c106.048,0,192-85.952,192-192S426.048,64,320,64z M160,416
			c-70.592,0-128-57.408-128-128s57.408-128,128-128c14.336,0,28.416,2.464,41.92,7.36c7.36,2.016,16.16,6.016,25.088,11.584
			c0.288,0.16,0.576,0.32,0.832,0.48l100.672,63.008c7.456,4.672,9.76,14.56,5.056,22.048c-4.672,7.52-14.528,9.792-22.08,5.088
			l-99.936-62.56c-0.32-0.16-0.64-0.352-0.928-0.544c-6.528-4.128-12.736-7.072-18.432-8.64C125.344,173.984,64,224.48,64,288
			c0,52.928,43.072,96,96,96c5.408,0,10.752-0.576,15.968-1.44c8.096,9.312,17.12,17.856,27.488,25.696
			C189.696,413.216,175.072,416,160,416z M320,416c-34.624,0-67.584-10.944-95.328-31.648c-10.784-7.936-19.872-16.48-27.616-26.016
			c-0.288-0.32-0.576-0.64-0.832-0.928l-48.608-59.264c-5.6-6.848-4.608-16.928,2.24-22.528c6.784-5.632,16.896-4.608,22.528,2.24
			l47.68,58.112c0.384,0.416,0.768,0.832,1.12,1.28c6.144,7.744,13.504,14.752,22.528,21.408C265.984,375.264,292.352,384,320,384
			c70.592,0,128-57.408,128-128s-57.408-128-128-128c-27.744,0-53.728,8.768-75.104,24.384l-0.096-0.064
			c-0.512-0.32-1.024-0.64-1.536-0.928c-10.08-6.24-20.256-10.848-30.304-14.016C241.792,111.072,279.36,96,320,96
			c88.224,0,160,71.776,160,160S408.224,416,320,416z"/>
	</g>
</g>
<g>
</g>
<g>
</g>
<g>
</g>
<g>
</g>
<g>
</g>
<g>
</g>
<g>
</g>
<g>
</g>
<g>
</g>
<g>
</g>
<g>
</g>
<g>
</g>
<g>
</g>
<g>
</g>
<g>
</g>
</svg>
