<svg height="438pt" viewBox="-4 0 438 438.42486" width="438pt" xmlns="http://www.w3.org/2000/svg"
     xmlns:xlink="http://www.w3.org/1999/xlink">
    <linearGradient id="a">
        <stop offset="0" stop-color="#c207d9"/>
        <stop offset="1" stop-color="#ff0097"/>
    </linearGradient>
    <linearGradient id="b" gradientTransform="matrix(1 0 0 -1 -40.78757 477.524856)" gradientUnits="userSpaceOnUse"
                    x1="256" x2="256" xlink:href="#a" y1="508" y2="22.35"/>
    <linearGradient id="c" gradientTransform="matrix(1 0 0 -1 -40.78757 477.524856)" gradientUnits="userSpaceOnUse"
                    x1="402" x2="402" xlink:href="#a" y1="508" y2="22.35"/>
    <linearGradient id="d" gradientTransform="matrix(1 0 0 -1 -40.78757 477.524856)" gradientUnits="userSpaceOnUse"
                    x1="226" x2="226" xlink:href="#a" y1="508" y2="22.35"/>
    <path d="m389.8125 111.523438h-39.601562v-98.199219c-.058594-3.28125-1.699219-6.332031-4.398438-8.199219-2.691406-1.859375-6.101562-2.339844-9.199219-1.300781l-85.699219 30.402343-31.601562-31.300781c-1.867188-1.875-4.40625-2.925781-7.050781-2.925781s-5.179688 1.050781-7.050781 2.925781l-73.898438 73.898438-100 35.800781c-18.125 4.199219-30.992188 20.296875-31.101562 38.898438v247.300781c0 22.101562 18.402343 39.601562 40.402343 39.601562h349.199219c22.101562 0 40.398438-17.5 40.398438-39.601562v-247.199219c0-22-18.398438-40.101562-40.398438-40.101562zm-59.601562-84v84h-1.296876l-62.101562-61.699219zm-117.898438-3.398438 88.199219 87.398438h-175.699219zm-115.699219 87.398438h-2.902343l4.5-1.597657zm293.199219 307h-349.199219c-11 0-20.402343-8.597657-20.402343-19.597657v-247.300781c0-11 9.402343-20.101562 20.402343-20.101562h349.199219c11 0 20.398438 9.101562 20.398438 20.101562v49.898438h-69.5c-13.175782-.042969-25.820313 5.1875-35.121094 14.523437-9.296875 9.335937-14.472656 22.003906-14.378906 35.179687v48.199219c0 27.597657 22 50.097657 49.5 50.097657h69.5v49.402343c0 11-9.398438 19.597657-20.398438 19.597657zm20.398438-197v108h-69.5c-16.5 0-29.5-13.597657-29.5-30.097657v-48.199219c-.078126-7.867187 3-15.4375 8.542968-21.019531 5.542969-5.578125 13.09375-8.707031 20.957032-8.683593zm0 0"
          fill="url(#b)"/>
    <path d="m329.414062 275.625c0 17.5625 14.234376 31.800781 31.796876 31.800781s31.800781-14.238281 31.800781-31.800781-14.238281-31.800781-31.800781-31.800781c-17.558594.007812-31.789063 14.242187-31.796876 31.800781zm31.796876-11.699219c6.519531 0 11.800781 5.28125 11.800781 11.800781 0 6.515626-5.28125 11.796876-11.800781 11.796876-6.515626 0-11.796876-5.28125-11.796876-11.796876.011719-6.511718 5.285157-11.789062 11.796876-11.800781zm0 0"
          fill="url(#c)"/>
    <path d="m185.210938 232.824219c9.664062.011719 17.492187 7.839843 17.5 17.5 0 5.523437 4.480468 10 10 10 5.523437 0 10-4.476563 10-10-.019532-17.234375-11.769532-32.246094-28.5-36.398438v-9.402343c0-5.519532-4.476563-10-10-10-5.519532 0-10 4.480468-10 10v9.902343c-17.746094 5.457031-28.832032 23.070313-26.082032 41.433594 2.753906 18.359375 18.515625 31.949219 37.082032 31.964844 9.667968 0 17.5 7.835937 17.5 17.5 0 9.664062-7.832032 17.5-17.5 17.5-9.664063 0-17.5-7.835938-17.5-17.5 0-5.523438-4.476563-10-10-10-5.519532 0-10 4.476562-10 10 .011718 16.480469 10.753906 31.035156 26.5 35.902343v8.296876c0 5.523437 4.480468 10 10 10 5.523437 0 10-4.476563 10-10v-7.699219c18.398437-4.554688 30.5-22.121094 28.210937-40.933594-2.292969-18.8125-18.257813-32.957031-37.210937-32.964844-9.691407 0-17.546876-7.859375-17.546876-17.550781s7.855469-17.550781 17.546876-17.550781zm0 0"
          fill="url(#d)"/>
</svg>