<?xml version="1.0" encoding="UTF-8"?>
<svg width="438pt" height="438pt" version="1.1" viewBox="-4 0 438 438.42" xmlns="http://www.w3.org/2000/svg" xmlns:xlink="http://www.w3.org/1999/xlink">
  <linearGradient id="a">
    <stop stop-color="#c207d9" offset="0"/>
    <stop stop-color="#ff0097" offset="1"/>
  </linearGradient>
  <linearGradient id="e" x1="256" x2="256" y1="508" y2="22.35" gradientTransform="matrix(1 0 0 -1 -40.788 477.52)" gradientUnits="userSpaceOnUse" xlink:href="#a"/>
  <linearGradient id="d" x1="402" x2="402" y1="508" y2="22.35" gradientTransform="matrix(1 0 0 -1 -40.788 477.52)" gradientUnits="userSpaceOnUse" xlink:href="#a"/>
  <path d="m389.81 111.52h-39.602v-98.199c-0.058594-3.2812-1.6992-6.332-4.3984-8.1992-2.6914-1.8594-6.1016-2.3398-9.1992-1.3008l-85.699 30.402-31.602-31.301c-1.8672-1.875-4.4062-2.9258-7.0508-2.9258s-5.1797 1.0508-7.0508 2.9258l-73.898 73.898-100 35.801c-18.125 4.1992-30.992 20.297-31.102 38.898v247.3c0 22.102 18.402 39.602 40.402 39.602h349.2c22.102 0 40.398-17.5 40.398-39.602v-247.2c0-22-18.398-40.102-40.398-40.102zm-59.602-84v84h-1.2969l-62.102-61.699zm-117.9-3.3984 88.199 87.398h-175.7zm-115.7 87.398h-2.9023l4.5-1.5977zm293.2 307h-349.2c-11 0-20.402-8.5977-20.402-19.598v-247.3c0-11 9.4023-20.102 20.402-20.102h349.2c11 0 20.398 9.1016 20.398 20.102v49.898h-69.5c-13.176-0.042969-25.82 5.1875-35.121 14.523-9.2969 9.3359-14.473 22.004-14.379 35.18v48.199c0 27.598 22 50.098 49.5 50.098h69.5v49.402c0 11-9.3984 19.598-20.398 19.598zm20.398-197v108h-69.5c-16.5 0-29.5-13.598-29.5-30.098v-48.199c-0.078126-7.8672 3-15.438 8.543-21.02 5.543-5.5781 13.094-8.707 20.957-8.6836z" fill="url(#e)"/>
  <path d="m329.41 275.62c0 17.562 14.234 31.801 31.797 31.801s31.801-14.238 31.801-31.801-14.238-31.801-31.801-31.801c-17.559 0.007812-31.789 14.242-31.797 31.801zm31.797-11.699c6.5195 0 11.801 5.2812 11.801 11.801 0 6.5156-5.2812 11.797-11.801 11.797-6.5156 0-11.797-5.2812-11.797-11.797 0.011719-6.5117 5.2852-11.789 11.797-11.801z" fill="url(#d)"/>
  <text transform="scale(1.0331 .96797)" x="108.21844" y="356.77594" fill="#ff00ff" font-family="sans-serif" font-size="39.018px" stroke-width=".97546" style="line-height:1.25" xml:space="preserve"><tspan x="108.21844" y="356.77594" fill="#ff0097" font-family="'Segoe UI'" font-weight="bold" stroke-width=".97546">	<tspan fill="##ff0097" font-size="187.29px" stroke-width=".97546">£</tspan></tspan></text>
</svg>